<?xml version="1.0" ?><!DOCTYPE svg  PUBLIC '-//W3C//DTD SVG 1.1//EN'  'http://www.w3.org/Graphics/SVG/1.1/DTD/svg11.dtd'><svg enable-background="new 0 0 512 512" height="512px" id="Layer_1" version="1.1" viewBox="0 0 512 512" width="512px" xml:space="preserve" xmlns="http://www.w3.org/2000/svg" xmlns:xlink="http://www.w3.org/1999/xlink"><g><path d="M111.642,112.146c-53.535,53.535-53.586,140.391-0.051,193.926    c45.764,45.764,116.021,52.228,168.623,19.978l105.04,105.04c12.495,12.495,32.761,12.495,45.255,0    c12.495-12.494,12.495-32.76,0-45.255L325.434,280.759c32.208-52.645,25.754-122.841-19.968-168.563    C251.931,58.661,165.177,58.611,111.642,112.146z M274.404,274.907c-36.353,36.353-95.297,36.353-131.65,0.001    c-36.352-36.353-36.352-95.297,0-131.65c36.352-36.352,95.297-36.353,131.649,0C310.757,179.61,310.756,238.555,274.404,274.907z" fill="#3B3D3F"/><path d="M111.519,112.022c-0.013,0.013-0.025,0.025-0.038,0.038l31.112,31.113    c0.013-0.013,0.026-0.025,0.039-0.038c36.352-36.352,95.233-36.416,131.585-0.064c36.353,36.353,36.288,95.233-0.063,131.585    c-0.013,0.014-0.025,0.025-0.038,0.039l156.394,156.394c12.495-12.494,12.495-32.76,0-45.255L325.434,280.759    c32.208-52.645,25.692-122.902-20.029-168.625C251.869,58.6,165.053,58.487,111.519,112.022z" fill="#FFFFFF" opacity="0.03"/></g></svg>